<svg id="SvgjsSvg1001" width="288" height="288" xmlns="http://www.w3.org/2000/svg" version="1.1" xmlns:xlink="http://www.w3.org/1999/xlink" xmlns:svgjs="http://svgjs.com/svgjs"><defs id="SvgjsDefs1002"></defs><g id="SvgjsG1008"><svg xmlns="http://www.w3.org/2000/svg" viewBox="0 0 20 20" width="288" height="288"><path fill="none" fill-rule="evenodd" stroke="#2373d9" stroke-linecap="round" stroke-linejoin="round" stroke-width="2" d="M18 8.5a8.38 8.38 0 0 1-.9 3.8A8.5 8.5 0 0 1 9.5 17a8.38 8.38 0 0 1-3.8-.9L0 18l1.9-5.7A8.38 8.38 0 0 1 1 8.5 8.5 8.5 0 0 1 5.7.9 8.38 8.38 0 0 1 9.5 0h.5a8.48 8.48 0 0 1 8 8v.5z" transform="translate(1 1)" class="svgStroke colorStroke000000-0 selectable"></path></svg></g></svg>